<?xml version="1.0" encoding="UTF-8" standalone="no"?>
<svg width="70px" height="84px" viewBox="0 0 70 84" version="1.1" xmlns="http://www.w3.org/2000/svg" xmlns:xlink="http://www.w3.org/1999/xlink">
  <path fill="#003059" d="M3.35971459,26.6233527 C-1.92478758,17.4696923 1.21188876,5.76415965 10.3661398,0.479066763 L13.8761457,6.55925689 C7.8792458,10.0225965 6.17563477,17.6799855 9.34539094,23.1694644 C12.5139657,28.6589434 19.9970949,31.0123367 25.9939947,27.5489971 L29.5140426,33.6244615 C20.3597916,38.909553 8.64539819,35.7776038 3.35971459,26.6233527 Z"></path>
  <radialGradient cx="56.9969915%" cy="28.7641679%" fx="56.9969915%" fy="28.7641679%" r="47.1908008%" id="radial-circle">
    <stop stop-color="#F1FFF8" offset="0%"></stop>
    <stop stop-color="#FFFFFF" offset="20.6108101%"></stop>
    <stop stop-color="#006443" offset="100%"></stop>
  </radialGradient>
  <path fill="url(#radial-circle)" d="M11.4761942,22.1699463 C14.1206868,26.7528412 20.3893119,28.7233629 25.4031413,25.8294101 C30.4614025,22.9081559 31.8436049,16.5185479 29.1980417,11.9372589 C26.5530138,7.35543464 20.3282851,5.35975279 15.2705592,8.27886575 C10.2561945,11.1738892 8.83009564,17.5870514 11.4761942,22.1699463 Z">     </path>
</svg>