<svg xmlns="http://www.w3.org/2000/svg" xmlns:xlink="http://www.w3.org/1999/xlink">

    <symbol id="icon-business" viewBox="0 0 40 36">
        <g fill="none" transform="translate(-675.000000, -82.000000)">
            <g transform="translate(677.000000, 84.000000)">
                <path d="M1.51701485,32.0680894 C0.678864145,32.0680894 2.27373675e-13,31.4153354 2.27373675e-13,30.6094213 L2.27373675e-13,1.45866813 C2.27373675e-13,0.65348332 0.678864145,-2.84217094e-14 1.51701485,-2.84217094e-14 L17.4456708,-2.84217094e-14 C18.2838215,-2.84217094e-14 18.9626856,0.65348332 18.9626856,1.45866813 L18.9626856,30.6094213 C18.9626856,31.4153354 18.2838215,32.0680894 17.4456708,32.0680894 L1.51701485,32.0680894 L1.51701485,32.0680894 Z" stroke="#4c4c4c" stroke-width="3" stroke-linejoin="round"></path>
                <g transform="translate(4.376004, 2.188002)" fill="#4c4c4c">
                    <path d="M2.46531931,18.9512351 L0.520428476,18.9512351 C0.252033541,18.9512351 0.0342057675,18.6789504 0.0342057675,18.3434567 L0.0342057675,15.9123432 C0.0342057675,15.5768495 0.252033541,15.3045648 0.520428476,15.3045648 L2.46531931,15.3045648 C2.73371424,15.3045648 2.95154202,15.5768495 2.95154202,15.9123432 L2.95154202,18.3434567 C2.95154202,18.6789504 2.73371424,18.9512351 2.46531931,18.9512351 L2.46531931,18.9512351 Z"></path>
                    <path d="M9.6902484,18.9512351 L7.74535757,18.9512351 C7.47696263,18.9512351 7.25913486,18.6789504 7.25913486,18.3434567 L7.25913486,15.9123432 C7.25913486,15.5768495 7.47696263,15.3045648 7.74535757,15.3045648 L9.6902484,15.3045648 C9.95864334,15.3045648 10.1764711,15.5768495 10.1764711,15.9123432 L10.1764711,18.3434567 C10.1764711,18.6789504 9.95864334,18.9512351 9.6902484,18.9512351 L9.6902484,18.9512351 Z"></path>
                    <path d="M2.46531931,11.6578945 L0.520428476,11.6578945 C0.252033541,11.6578945 0.0342057675,11.3856097 0.0342057675,11.0501161 L0.0342057675,8.61900253 C0.0342057675,8.28350886 0.252033541,8.01122414 0.520428476,8.01122414 L2.46531931,8.01122414 C2.73371424,8.01122414 2.95154202,8.28350886 2.95154202,8.61900253 L2.95154202,11.0501161 C2.95154202,11.3856097 2.73371424,11.6578945 2.46531931,11.6578945 L2.46531931,11.6578945 Z"></path>
                    <path d="M9.6902484,11.6578945 L7.74535757,11.6578945 C7.47696263,11.6578945 7.25913486,11.3856097 7.25913486,11.0501161 L7.25913486,8.61900253 C7.25913486,8.28350886 7.47696263,8.01122414 7.74535757,8.01122414 L9.6902484,8.01122414 C9.95864334,8.01122414 10.1764711,8.28350886 10.1764711,8.61900253 L10.1764711,11.0501161 C10.1764711,11.3856097 9.95864334,11.6578945 9.6902484,11.6578945 L9.6902484,11.6578945 Z"></path>
                    <path d="M2.46531931,4.36455383 L0.520428476,4.36455383 C0.252033541,4.36455383 0.0342057675,4.09226911 0.0342057675,3.75677545 L0.0342057675,1.3256619 C0.0342057675,0.990168234 0.252033541,0.717883518 0.520428476,0.717883518 L2.46531931,0.717883518 C2.73371424,0.717883518 2.95154202,0.990168234 2.95154202,1.3256619 L2.95154202,3.75677545 C2.95154202,4.09226911 2.73371424,4.36455383 2.46531931,4.36455383 L2.46531931,4.36455383 Z"></path>
                    <path d="M9.6902484,4.36455383 L7.74535757,4.36455383 C7.47696263,4.36455383 7.25913486,4.09226911 7.25913486,3.75677545 L7.25913486,1.3256619 C7.25913486,0.990168234 7.47696263,0.717883518 7.74535757,0.717883518 L9.6902484,0.717883518 C9.95864334,0.717883518 10.1764711,0.990168234 10.1764711,1.3256619 L10.1764711,3.75677545 C10.1764711,4.09226911 9.95864334,4.36455383 9.6902484,4.36455383 L9.6902484,4.36455383 Z"></path>
                    <path d="M2.46531931,26.2445757 L0.520428476,26.2445757 C0.252033541,26.2445757 0.0342057675,25.972291 0.0342057675,25.6367973 L0.0342057675,23.2056838 C0.0342057675,22.8701901 0.252033541,22.5979054 0.520428476,22.5979054 L2.46531931,22.5979054 C2.73371424,22.5979054 2.95154202,22.8701901 2.95154202,23.2056838 L2.95154202,25.6367973 C2.95154202,25.972291 2.73371424,26.2445757 2.46531931,26.2445757 L2.46531931,26.2445757 Z"></path>
                    <path d="M9.6902484,26.2445757 L7.74535757,26.2445757 C7.47696263,26.2445757 7.25913486,25.972291 7.25913486,25.6367973 L7.25913486,23.2056838 C7.25913486,22.8701901 7.47696263,22.5979054 7.74535757,22.5979054 L9.6902484,22.5979054 C9.95864334,22.5979054 10.1764711,22.8701901 10.1764711,23.2056838 L10.1764711,25.6367973 C10.1764711,25.972291 9.95864334,26.2445757 9.6902484,26.2445757 L9.6902484,26.2445757 Z"></path>
                </g>
                <path d="M18.2333516,13.834519 L34.2787009,13.834519 C35.0846151,13.834519 35.7373691,14.487273 35.7373691,15.2931872 L35.7373691,30.6092025 C35.7373691,31.4151166 35.0846151,32.0678706 34.2787009,32.0678706 L14.4838451,32.0678706" stroke="#4c4c4c" stroke-width="3" stroke-linejoin="round"></path>
                <path d="M24.7100082,20.7860208 L22.7651174,20.7860208 C22.4967224,20.7860208 22.2788947,20.5137361 22.2788947,20.1782424 L22.2788947,17.7471289 C22.2788947,17.4116352 22.4967224,17.1393505 22.7651174,17.1393505 L24.7100082,17.1393505 C24.9784032,17.1393505 25.1962309,17.4116352 25.1962309,17.7471289 L25.1962309,20.1782424 C25.1962309,20.5137361 24.9784032,20.7860208 24.7100082,20.7860208 L24.7100082,20.7860208 Z" fill="#2C5800"></path>
                <path d="M31.604476,21.1506878 L29.6595852,21.1506878 C29.3911903,21.1506878 29.1733625,20.8784031 29.1733625,20.5429094 L29.1733625,18.1117959 C29.1733625,17.7763022 29.3911903,17.5040175 29.6595852,17.5040175 L31.604476,17.5040175 C31.872871,17.5040175 32.0906988,17.7763022 32.0906988,18.1117959 L32.0906988,20.5429094 C32.0906988,20.8784031 31.872871,21.1506878 31.604476,21.1506878 L31.604476,21.1506878 Z" fill="#2C5800"></path>
                <path d="M24.7100082,28.0793614 L22.7651174,28.0793614 C22.4967224,28.0793614 22.2788947,27.8070767 22.2788947,27.471583 L22.2788947,25.0404695 C22.2788947,24.7049758 22.4967224,24.4326911 22.7651174,24.4326911 L24.7100082,24.4326911 C24.9784032,24.4326911 25.1962309,24.7049758 25.1962309,25.0404695 L25.1962309,27.471583 C25.1962309,27.8070767 24.9784032,28.0793614 24.7100082,28.0793614 L24.7100082,28.0793614 Z" fill="#2C5800"></path>
                <path d="M31.604476,28.4440284 L29.6595852,28.4440284 C29.3911903,28.4440284 29.1733625,28.1717437 29.1733625,27.8362501 L29.1733625,25.4051365 C29.1733625,25.0696428 29.3911903,24.7973581 29.6595852,24.7973581 L31.604476,24.7973581 C31.872871,24.7973581 32.0906988,25.0696428 32.0906988,25.4051365 L32.0906988,27.8362501 C32.0906988,28.1717437 31.872871,28.4440284 31.604476,28.4440284 L31.604476,28.4440284 Z" fill="#2C5800"></path>
            </g>
        </g>
    </symbol>

    <symbol id="icon-private" viewBox="0 0 40 36">
        <rect x="29.9574468" y="0.952396597" width="2.80851064" height="6.66677618" rx="1.40425532"></rect>
        <rect x="36.5106383" y="9.52396597" width="2.80851064" height="26.6671047" rx="1.40425532"></rect>
        <rect transform="translate(22.936170, 34.762476) scale(-1, 1) translate(-22.936170, -34.762476) " x="6.55319149" y="33.3338809" width="32.7659574" height="2.85718979" rx="1.42859489"></rect>
        <rect x="6.55319149" y="9.52396597" width="2.80851064" height="26.6671047" rx="1.40425532"></rect>
        <rect x="26.212766" y="14.2859489" width="3.74468085" height="4.76198298" rx="1"></rect>
        <rect x="15.9148936" y="14.2859489" width="3.74468085" height="4.76198298" rx="1"></rect>
        <rect x="15.9148936" y="23.8099149" width="3.74468085" height="4.76198298" rx="1"></rect>
        <rect x="26.212766" y="23.8099149" width="3.74468085" height="4.76198298" rx="1"></rect>
        <path d="M15.7364645,6.48757294 C15.7364645,5.69858176 16.3758298,5.05897804 17.1678206,5.05897804 L42.3902148,5.05897804 C43.1807309,5.05897804 43.8215709,5.69308106 43.8215709,6.48757294 L43.8215709,6.48757294 C43.8215709,7.27656411 43.1822056,7.91616783 42.3902148,7.91616783 L17.1678206,7.91616783 C16.3773044,7.91616783 15.7364645,7.28206481 15.7364645,6.48757294 L15.7364645,6.48757294 Z" transform="translate(29.779018, 6.487573) rotate(-342.000000) translate(-29.779018, -6.487573) "></path>
        <rect transform="translate(10.038912, 7.334587) rotate(-32.000000) translate(-10.038912, -7.334587) " x="-0.25896009" y="5.9059924" width="20.5957447" height="2.85718979" rx="1.42859489"></rect>
    </symbol>
</svg>