<svg xmlns="http://www.w3.org/2000/svg" xmlns:xlink="http://www.w3.org/1999/xlink">
    <symbol id="icon-origin-vind" viewBox="0 0 48 31">
        <title>wind</title>
        <path class="path1" d="M36.876,31 L6.354,31 C5.526,31 4.854,30.327 4.854,29.5 C4.854,28.673 5.526,28 6.354,28 L36.876,28 C40.854,28 44.092,24.357 44.092,19.88 C44.092,15.402 40.854,11.758 36.876,11.758 C35.445,11.758 34.062,12.231 32.873,13.126 C32.379,13.501 31.716,13.532 31.184,13.206 C30.654,12.88 30.384,12.274 30.493,11.663 C30.577,11.201 30.619,10.728 30.619,10.258 C30.619,6.364 27.812,3.195 24.36,3.195 C20.911,3.195 18.104,6.364 18.104,10.258 C18.123,11.017 17.566,11.743 16.865,11.864 C15.423,12.113 14.093,12.844 13.019,13.976 C12.449,14.577 11.499,14.601 10.899,14.035 C10.299,13.467 10.272,12.515 10.841,11.914 C12.055,10.63 13.541,9.696 15.155,9.195 C15.646,4.12 19.628,0.194 24.359,0.194 C29.148,0.194 33.152,4.238 33.581,9.349 C34.637,8.956 35.742,8.757 36.875,8.757 C42.508,8.757 47.091,13.746 47.091,19.879 C47.092,22.837 46.033,25.623 44.111,27.724 C42.179,29.836 39.609,31 36.876,31"></path>
        <path class="path2" d="M14.97,18.813 L5.856,18.813 C5.14,18.813 4.557,18.23 4.557,17.513 C4.557,16.796 5.14,16.213 5.856,16.213 L14.97,16.213 C15.686,16.213 16.27,16.796 16.27,17.513 C16.27,18.23 15.686,18.813 14.97,18.813"></path>
        <path class="path3" d="M14.329,22.612 L3.578,22.612 C2.861,22.612 2.278,22.029 2.278,21.312 C2.278,20.595 2.861,20.012 3.578,20.012 L14.329,20.012 C15.046,20.012 15.629,20.595 15.629,21.312 C15.629,22.029 15.046,22.612 14.329,22.612"></path>
        <path class="path4" d="M14.685,26.39 L1.301,26.39 C0.584,26.39 0,25.807 0,25.09 C0,24.373 0.584,23.79 1.301,23.79 L14.685,23.79 C15.401,23.79 15.984,24.373 15.984,25.09 C15.984,25.807 15.401,26.39 14.685,26.39"></path>
    </symbol>
    <symbol id="icon-origin-vatten" viewBox="0 0 28 40">
        <path class="path1" d="M13.602,40 C6.102,40 0,33.897 0,26.397 C0,23.752 0.777,21.173 2.247,18.937 L8.493,7.993 C8.883,7.316 9.749,7.085 10.425,7.476 C11.101,7.866 11.332,8.731 10.942,9.408 L9.703,11.554 L4.658,20.414 C3.444,22.265 2.828,24.306 2.828,26.397 C2.828,32.338 7.661,37.172 13.601,37.172 C19.541,37.172 24.374,32.338 24.374,26.397 C24.374,24.305 23.757,22.265 22.591,20.491 L17.496,11.546 L12.377,2.687 C11.987,2.011 12.218,1.146 12.895,0.755 C13.57,0.364 14.434,0.595 14.826,1.272 L19.949,10.139 L25.001,19.013 C26.425,21.171 27.203,23.751 27.203,26.396 C27.203,33.897 21.102,40 13.602,40"></path>
        <path class="path2" d="M13.869,35.726 C13.088,35.726 12.455,35.093 12.455,34.311 C12.455,33.531 13.088,32.897 13.869,32.897 C17.501,32.897 20.454,29.943 20.454,26.311 C20.454,25.034 20.077,23.785 19.364,22.703 C18.934,22.05 19.115,21.173 19.766,20.743 C20.419,20.315 21.296,20.495 21.726,21.147 C22.745,22.693 23.283,24.479 23.283,26.311 C23.283,31.502 19.06,35.726 13.869,35.726" ></path>
    </symbol>
    <symbol id="icon-origin-solel" viewBox="0 0 41 41">
        <path class="path1" d="M20.336,12.843 C24.649,12.843 28.157,16.351 28.157,20.664 C28.157,24.977 24.649,28.486 20.336,28.486 C16.023,28.486 12.514,24.977 12.514,20.664 C12.514,16.352 16.023,12.843 20.336,12.843 L20.336,12.843 Z M20.336,31.614 C26.373,31.614 31.286,26.702 31.286,20.664 C31.286,14.626 26.373,9.714 20.336,9.714 C14.298,9.714 9.386,14.626 9.386,20.664 C9.386,26.702 14.298,31.614 20.336,31.614 L20.336,31.614 Z"></path>
        <path class="path2" d="M21.9,39.436 L21.9,34.073 C21.9,33.209 21.2,32.509 20.336,32.509 C19.472,32.509 18.771,33.209 18.771,34.073 L18.771,39.436 C18.771,40.3 19.472,41 20.336,41 C21.2,41 21.9,40.3 21.9,39.436"></path>
        <path class="path3" d="M20.336,8.82 C21.2,8.82 21.9,8.12 21.9,7.256 L21.9,1.892 C21.9,1.029 21.2,0.328 20.336,0.328 C19.472,0.328 18.771,1.029 18.771,1.892 L18.771,7.256 C18.771,8.12 19.472,8.82 20.336,8.82"></path>
        <path class="path4" d="M32.18,20.664 C32.18,21.528 32.88,22.228 33.743,22.228 L39.107,22.228 C39.971,22.228 40.672,21.528 40.672,20.664 C40.672,19.8 39.971,19.1 39.107,19.1 L33.743,19.1 C32.88,19.1 32.18,19.8 32.18,20.664"></path>
        <path class="path5" d="M1.565,22.228 L6.927,22.228 C7.791,22.228 8.491,21.528 8.491,20.664 C8.491,19.8 7.791,19.1 6.927,19.1 L1.565,19.1 C0.7,19.1 0,19.8 0,20.664 C0,21.528 0.7,22.228 1.565,22.228"></path>
        <path class="path6" d="M28.824,29.039 C28.213,29.65 28.213,30.641 28.824,31.251 L32.617,35.044 C32.922,35.349 33.323,35.502 33.723,35.502 C34.123,35.502 34.523,35.349 34.828,35.044 C35.44,34.433 35.44,33.443 34.828,32.832 L31.036,29.039 C30.426,28.428 29.436,28.428 28.824,29.039"></path>
        <path class="path7" d="M9.862,12.289 C10.168,12.594 10.568,12.747 10.968,12.747 C11.368,12.747 11.769,12.594 12.074,12.289 C12.685,11.678 12.685,10.688 12.074,10.077 L8.282,6.284 C7.67,5.673 6.681,5.673 6.07,6.284 C5.458,6.895 5.458,7.886 6.07,8.497 L9.862,12.289"></path>
        <path class="path8" d="M9.749,29.039 L5.956,32.832 C5.345,33.443 5.345,34.433 5.956,35.044 C6.262,35.349 6.662,35.502 7.062,35.502 C7.462,35.502 7.862,35.349 8.168,35.044 L11.96,31.251 C12.572,30.641 12.572,29.65 11.96,29.039 C11.35,28.428 10.36,28.428 9.749,29.039"></path>
        <path class="path9" d="M29.817,12.747 C30.217,12.747 30.617,12.594 30.923,12.289 L34.715,8.497 C35.326,7.886 35.326,6.895 34.715,6.284 C34.104,5.673 33.114,5.673 32.503,6.284 L28.711,10.077 C28.099,10.688 28.099,11.678 28.711,12.289 C29.017,12.595 29.417,12.747 29.817,12.747"></path>
    </symbol>
    <symbol id="icon-usage.type.small-house" viewBox="0 0 50 50">
        <path class="path1" d="M-110.5,50h-27.3c-1.2,0-2.1-1-2.1-2.1V2.1c0-1.2,1-2.1,2.1-2.1h27.4c1.2,0,2.1,1,2.1,2.1V48 C-108.4,49-109.4,50-110.5,50z M-135.9,45.9h23.3V4.1h-23.3V45.9z"/>
        <path class="path2" d="M-124.3,50c-1.2,0-2.1-1-2.1-2.1V2.1c0-1.2,1-2.1,2.1-2.1s2.1,1,2.1,2.1V48 C-122.1,49-123.1,50-124.3,50z"/>
        <path class="path3" d="M-111.6,19.1h-26.3c-1.2,0-2.1-1-2.1-2.1s1-2.1,2.1-2.1h26.4c1.2,0,2.1,1,2.1,2.1 C-109.5,18.2-110.4,19.1-111.6,19.1z"/>
        <path class="path4" d="M-111.6,35h-26.3c-1.2,0-2.1-1-2.1-2.1s1-2.1,2.1-2.1h26.4c1.2,0,2.1,1,2.1,2.1 C-109.5,34-110.4,35-111.6,35z"/>
        <path class="path5" d="M-92.1,50h-17.3c-1.2,0-2.1-1-2.1-2.1V25c0-1.2,1-2.1,2.1-2.1h17.3c1.2,0,2.1,1,2.1,2.1v22.9 C-90,49-91,50-92.1,50z M-108.3,45.9h14.2V27.1h-14.2V45.9z"/>
        <path class="path6" d="M-101.3,50c-1.2,0-2.1-1-2.1-2.1V37.8c0-1.2,1-2.1,2.1-2.1s2.1,1,2.1,2.1v10.1 C-99.3,49-100.1,50-101.3,50z"/>
        <path class="path7" d="M-25.7,47h-38c-1.2,0-2.1-0.9-2.1-2V12.3c0-1.1,1-2,2.1-2c1.2,0,2.1,0.9,2.1,2V43h33.8V12.3 c0-1.1,1-2,2.1-2s2.1,0.9,2.1,2V45C-23.5,46.1-24.5,47-25.7,47z"/>
        <path class="path8" d="M-68,16c-0.6,0-1.4-0.3-1.7-0.9c-0.6-0.9-0.3-2.1,0.6-2.7l17.1-10.7c0.5-0.3,1.3-0.4,1.8-0.2 l28.7,9c1.1,0.3,1.7,1.5,1.3,2.5c-0.3,1-1.6,1.6-2.7,1.2l-27.6-8.7l-16.4,10.1C-67.2,15.9-67.6,16-68,16z"/>
        <path class="path9" d="M-34.2,10.5c-1.2,0-2.1-0.9-2.1-2V2c0-1.1,1-2,2.1-2c1.2,0,2.1,0.9,2.1,2v6.5 C-32.1,9.6-33.1,10.5-34.2,10.5z"/>
        <path class="path10" d="M-51.7,25.5c-1.2,0-2.1-0.9-2.1-2v-2.9c0-1.1,1-2,2.1-2s2.1,0.9,2.1,2v2.9 C-49.6,24.7-50.6,25.5-51.7,25.5z"/>
        <path class="path11" d="M-37.6,25.5c-1.2,0-2.1-0.9-2.1-2v-2.9c0-1.1,1-2,2.1-2s2.1,0.9,2.1,2v2.9 C-35.5,24.7-36.5,25.5-37.6,25.5z"/>
        <path class="path12" d="M-51.7,38.7c-1.2,0-2.1-0.9-2.1-2v-2.9c0-1.1,1-2,2.1-2s2.1,0.9,2.1,2v2.9 C-49.6,37.8-50.6,38.7-51.7,38.7z"/>
        <path class="path13" d="M-37.6,38.7c-1.2,0-2.1-0.9-2.1-2v-2.9c0-1.1,1-2,2.1-2s2.1,0.9,2.1,2v2.9 C-35.5,37.8-36.5,38.7-37.6,38.7z"/>
        <path class="path14" d="M43,50H7.1C5.9,50,5,49,5,47.9V21.7c0-1.2,1-2.1,2.1-2.1H43c1.2,0,2.1,1,2.1,2.1v26.2 C45.1,49,44.2,50,43,50z M9.2,45.9H41v-23H9.2V45.9z"/>
        <path class="path15" d="M48,22.8L48,22.8H2.1c-0.6,0-1.2-0.3-1.6-0.7c-0.4-0.5-0.5-1.2-0.4-1.7l2.1-10.2 c0.2-1,1.1-1.7,2-1.7h41.5c1,0,1.8,0.7,2,1.7l2,10c0.1,0.2,0.1,0.4,0.1,0.7C50,21.9,49.2,22.8,48,22.8z M4.7,18.7h40.7l-1.2-6.1H5.9 L4.7,18.7z"/>
        <path class="path16" d="M14.4,12.6c-1.2,0-2.1-1-2.1-2.1V2.1c0-1.2,1-2.1,2.1-2.1s2.1,1,2.1,2.1v8.4 C16.6,11.7,15.6,12.6,14.4,12.6z"/>
        <path class="path17" d="M29.6,50h-9.1c-1.2,0-2.1-1-2.1-2.1V32.4c0-1.2,1-2.1,2.1-2.1h9.1c1.2,0,2.1,1,2.1,2.1V48 C31.6,49,30.8,50,29.6,50z M22.6,45.9h5V34.4h-5V45.9z"/>
        <path class="path18" d="M48,50H2.1C1,50,0,49,0,47.9s1-2.1,2.1-2.1h45.8c1.2,0,2.1,1,2.1,2.1S49,50,48,50z"/>
    </symbol>
    <symbol id="icon-usage.type.large-house" viewBox="0 0 50 47">
        <path class="path1" d="M-40.5,50h-27.3c-1.2,0-2.1-1-2.1-2.1V2.1C-70,1-69,0-67.9,0h27.4c1.2,0,2.1,1,2.1,2.1V48 C-38.4,49-39.4,50-40.5,50z M-65.9,45.9h23.3V4.1h-23.3V45.9z"/>
        <path class="path2" d="M-54.3,50c-1.2,0-2.1-1-2.1-2.1V2.1c0-1.2,1-2.1,2.1-2.1c1.2,0,2.1,1,2.1,2.1V48 C-52.1,49-53.1,50-54.3,50z"/>
        <path class="path3" d="M-41.6,19.1h-26.3c-1.2,0-2.1-1-2.1-2.1s1-2.1,2.1-2.1h26.4c1.2,0,2.1,1,2.1,2.1 C-39.5,18.2-40.4,19.1-41.6,19.1z"/>
        <path class="path4" d="M-41.6,35h-26.3c-1.2,0-2.1-1-2.1-2.1s1-2.1,2.1-2.1h26.4c1.2,0,2.1,1,2.1,2.1 C-39.5,34-40.4,35-41.6,35z"/>
        <path class="path5" d="M-22.1,50h-17.3c-1.2,0-2.1-1-2.1-2.1V25c0-1.2,1-2.1,2.1-2.1h17.3c1.2,0,2.1,1,2.1,2.1v22.9 C-20,49-21,50-22.1,50z M-38.3,45.9h14.2V27.1h-14.2V45.9z"/>
        <path class="path6" d="M-31.3,50c-1.2,0-2.1-1-2.1-2.1V37.8c0-1.2,1-2.1,2.1-2.1c1.2,0,2.1,1,2.1,2.1v10.1 C-29.3,49-30.1,50-31.3,50z"/>
        <path class="path7" d="M44.3,47h-38c-1.2,0-2.1-0.9-2.1-2V12.3c0-1.1,1-2,2.1-2s2.1,0.9,2.1,2V43h33.8V12.3 c0-1.1,1-2,2.1-2c1.2,0,2.1,0.9,2.1,2V45C46.5,46.1,45.5,47,44.3,47z"/>
        <path class="path8" d="M2,16c-0.6,0-1.4-0.3-1.7-0.9C-0.3,14.2,0,13,1,12.4L18.1,1.7c0.5-0.3,1.3-0.4,1.8-0.2l28.7,9 c1.1,0.3,1.7,1.5,1.3,2.5c-0.3,1-1.6,1.6-2.7,1.2L19.5,5.5L3.1,15.6C2.8,15.9,2.4,16,2,16z"/>
        <path class="path9" d="M35.8,10.5c-1.2,0-2.1-0.9-2.1-2V2c0-1.1,1-2,2.1-2c1.2,0,2.1,0.9,2.1,2v6.5 C37.9,9.6,36.9,10.5,35.8,10.5z"/>
        <path class="path10" d="M18.3,25.5c-1.2,0-2.1-0.9-2.1-2v-2.9c0-1.1,1-2,2.1-2s2.1,0.9,2.1,2v2.9 C20.4,24.7,19.4,25.5,18.3,25.5z"/>
        <path class="path11" d="M32.4,25.5c-1.2,0-2.1-0.9-2.1-2v-2.9c0-1.1,1-2,2.1-2s2.1,0.9,2.1,2v2.9 C34.5,24.7,33.5,25.5,32.4,25.5z"/>
        <path class="path12" d="M18.3,38.7c-1.2,0-2.1-0.9-2.1-2v-2.9c0-1.1,1-2,2.1-2s2.1,0.9,2.1,2v2.9 C20.4,37.8,19.4,38.7,18.3,38.7z"/>
        <path class="path13" d="M32.4,38.7c-1.2,0-2.1-0.9-2.1-2v-2.9c0-1.1,1-2,2.1-2s2.1,0.9,2.1,2v2.9 C34.5,37.8,33.5,38.7,32.4,38.7z"/>
     </symbol>
     <symbol id="icon-usage.type.apartment" viewBox="0 0 50 50">
        <path class="path1" d="M29.5,50H2.1C1,50,0,49,0,47.9V2.1C0,1,1,0,2.1,0h27.4c1.2,0,2.1,1,2.1,2.1V48 C31.6,49,30.6,50,29.5,50z M4.1,45.9h23.3V4.1H4.1V45.9z"/>
        <path class="path2" d="M15.7,50c-1.2,0-2.1-1-2.1-2.1V2.1c0-1.2,1-2.1,2.1-2.1s2.1,1,2.1,2.1V48 C17.9,49,16.9,50,15.7,50z"/>
        <path class="path3" d="M28.4,19.1H2.1C1,19.1,0,18.2,0,17s1-2.1,2.1-2.1h26.4c1.2,0,2.1,1,2.1,2.1 C30.5,18.2,29.6,19.1,28.4,19.1z"/>
        <path class="path4" d="M28.4,35H2.1C1,35,0,34,0,32.9s1-2.1,2.1-2.1h26.4c1.2,0,2.1,1,2.1,2.1 C30.5,34,29.6,35,28.4,35z"/>
        <path class="path5" d="M47.9,50H30.6c-1.2,0-2.1-1-2.1-2.1V25c0-1.2,1-2.1,2.1-2.1h17.3c1.2,0,2.1,1,2.1,2.1v22.9 C50,49,49,50,47.9,50z M31.7,45.9h14.2V27.1H31.7V45.9z"/>
        <path class="path6" d="M38.7,50c-1.2,0-2.1-1-2.1-2.1V37.8c0-1.2,1-2.1,2.1-2.1c1.2,0,2.1,1,2.1,2.1v10.1 C40.7,49,39.9,50,38.7,50z"/>
     </symbol>
     <symbol id="icon-call-us-circle" viewBox="0 0 42 42">
        <g stroke="none" stroke-width="1" fill-rule="evenodd">
            <circle cx="21" cy="21" r="21"></circle>
            <g transform="translate(13.000000, 6.000000)" fill="#FFFFFF">
                <path class="path1" d="M0,1.99821383 C0,0.894630804 0.894513756,0 1.99406028,0 L14.0059397,0 C15.1072288,0 16,0.894337654 16,1.99821383 L16,29.0017862 C16,30.1053692 15.1054862,31 14.0059397,31 L1.99406028,31 C0.892771196,31 0,30.1056623 0,29.0017862 L0,1.99821383 Z M1,5 L15,5 L15,25 L1,25 L1,5 Z M8 30 C9.1045695,30 10,29.1045695 10,28 C10,26.8954305 9.1045695,26 8,26 C6.8954305,26 6,26.8954305 6,28 C6,29.1045695 6.8954305,30 8,30 Z"></path>
                <path class="path2" d="M11,18 L12.0046024,18 C12.5443356,18 13,17.553384 13,17.0024554 L13,9.99754465 C13,9.4463114 12.5543453,9 12.0046024,9 L3.99539757,9 C3.4556644,9 3,9.44661595 3,9.99754465 L3,17.0024554 C3,17.5536886 3.44565467,18 3.99539757,18 L8.17157288,18 L11,20.8284271 L11,18 Z"></path>
                <circle cx="8" cy="28" r="1"></circle>
            </g>
        </g>
    </symbol>
    <symbol id="icon-call-us" viewBox="0 0 15 31">
        <g stroke="none" stroke-width="1" fill-rule="evenodd">
            <path class="path1" d="M0,1.99821383 C0,0.894630804 0.893397331,0 1.99188419,0 L13.0081158,0 C14.1082031,0 15,0.894337654 15,1.99821383 L15,29.0017862 C15,30.1053692 14.1066027,31 13.0081158,31 L1.99188419,31 C0.891796927,31 0,30.1056623 0,29.0017862 L0,1.99821383 Z M1,5 L14,5 L14,24 L1,24 L1 5 Z M7.5,29 C8.32842712,29 9,28.3284271 9,27.5 C9,26.6715729 8.32842712,26 7.5,26 C6.67157288,26 6,26.6715729 6,27.5 C6,28.3284271 6.67157288,29 7.5,29 Z"></path>
        </g>
    </symbol>
    <symbol id="icon-back-arrow" viewBox="0 0 12 8">
        <g id="Symbols" stroke="none" stroke-width="1" fill-rule="evenodd">
            <g id="back-button" transform="translate(0.000000, -5.000000)">
                <g id="Group" transform="translate(0.000000, 5.000000)">
                    <polygon id="Triangle-3" transform="translate(3.000000, 4.000000) scale(-1, -1) rotate(-270.000000) translate(-3.000000, -4.000000) " points="3 1 7 7 -1 7"></polygon>
                    <rect id="Rectangle-124" x="6" y="3" width="6" height="2"></rect>
                </g>
            </g>
        </g>
    </symbol>
    <symbol id="icon-logo" viewBox="0 0 208 45">
        <path fill="#002e54" d="M89.181955,13.3914224 C88.4465196,13.2620566 87.8847533,13.1758128 87.3218055,13.1758128 C85.3146023,13.1758128 83.7003068,13.868791 82.5797434,15.126938 C81.8641088,15.9304387 82.1014163,15.758498 81.0632207,17.5632325 L81.0632206,13.4782569 L75.3770348,13.4782569 L75.3770348,34.206312 L81.2794209,34.206312 L81.2794209,25.0048041 C81.2794209,21.0245922 83.1679245,18.5566009 86.4558229,18.5566009 C87.4948839,18.5566009 88.1434848,18.687148 89.181955,19.1614891 L89.181955,13.3914224 Z"></path>
        <path fill="#002e54" d="M102.888226,29.5597779 C101.938363,29.7765689 101.331112,29.8196909 100.465129,29.8196909 C97.8264224,29.8196909 96.9899753,28.8249332 96.9899753,25.8820102 L96.9899753,18.1679129 L102.629495,18.1679129 L102.629495,13.5645007 L96.9899753,13.5645007 L96.9899753,6.85815675 L91.0893614,10.1897678 L91.0893614,26.9364296 C91.0893614,32.2599187 93.5419942,34.5961814 98.9942583,34.5961814 C100.378885,34.5961814 101.416765,34.5093469 102.888226,34.206312 L102.888226,29.5597779 Z"></path>
        <path fill="#002e54" d="M73.3071829,23.8222003 C73.3071829,17.4596502 69.5862932,12.9153091 63.13809,12.9153091 C56.9935123,12.9153091 52.8827533,17.589016 52.8827533,23.734775 C52.8827533,30.4854224 56.9078592,34.7680784 63.2686372,34.7680784 C69.1538926,34.7680784 73.3071829,30.224328 73.3071829,23.8222003 L73.3071829,23.8222003 Z M67.3628563,23.7773062 C67.3628563,27.4556647 65.8211001,29.7340377 63.2243338,29.7340377 C60.5425051,29.7340377 58.8258984,27.326299 58.8258984,23.734775 C58.8258984,20.1857823 60.4982017,17.8642874 63.13809,17.8642874 C65.7773875,17.8642874 67.3628563,20.0995385 67.3628563,23.7773062 L67.3628563,23.7773062 Z"></path>
        <path fill="#002e54" d="M123.720247,13.4782569 L117.819633,13.4782569 L117.819633,24.123463 C117.819633,28.2779347 117.025717,29.6625617 114.387601,29.6625617 C111.660878,29.6625617 110.738187,28.2779347 110.738187,24.4684383 L110.738187,13.4782569 L104.837573,13.4782569 L104.837573,24.3845573 C104.837573,28.9265356 105.558832,30.9178229 107.635772,32.6497881 C109.281493,33.9889303 111.618938,34.6824253 114.343888,34.6824253 C117.546134,34.6824253 120.142309,33.643955 121.786849,31.7406836 C123.128354,30.1817968 123.720247,28.0623251 123.720247,24.123463 L123.720247,13.4782569 Z"></path>
        <path fill="#002e54" d="M157.159225,22.3064354 C157.159225,18.8879898 156.899903,17.2440406 156.163877,15.987598 C155.125997,14.1705704 152.933868,13.0452656 150.422755,13.0452656 C147.962809,13.0452656 146.112436,14.0170197 144.739959,16.0928103 C144.398644,16.6090295 144.180636,17.2080244 143.802655,17.8483382 C143.067219,14.6466836 141.249601,13.0452656 138.221025,13.0452656 C135.746344,13.0452656 134.054527,13.9733805 132.683055,15.9585479 C132.327307,16.4734833 131.983526,17.292469 131.672401,17.7189724 L131.672401,13.4782569 L125.989168,13.4782569 L125.989168,34.206312 L131.888601,34.206312 L131.888601,24.5735849 C131.888601,23.2303077 131.974845,22.2349594 132.191636,21.4989332 C132.711462,19.6399652 134.02284,18.4278258 135.624849,18.4278258 C136.836398,18.4278258 137.714785,19.0321234 138.148367,20.1143062 C138.44963,20.8928636 138.580768,21.9313338 138.580768,23.8375588 L138.580768,34.206312 L144.523913,34.206312 L144.523913,24.2250653 C144.523913,20.4628258 145.793351,18.4278258 148.260161,18.4278258 C149.68791,18.4278258 150.654313,19.0598868 151.00047,20.4468766 C151.129245,21.0511742 151.21608,22.1924282 151.21608,23.5339332 L151.21608,34.206312 L157.159225,34.206312 L157.159225,22.3064354 Z"></path>
        <path fill="#002e54" d="M53.6902554,5.20475617 L37.2891597,5.20475617 L37.2891597,34.206312 L43.4390537,34.206312 L43.4390537,21.6513367 L51.502852,21.6513367 L51.502852,16.5375501 L43.4390537,16.5375501 L43.4390537,10.7922932 L53.6902554,10.7922932 L53.6902554,5.20475617 Z"></path>
        <path fill="#002e54" d="M3.35971459,26.6233527 C-1.92478758,17.4696923 1.21188876,5.76415965 10.3661398,0.479066763 L13.8761457,6.55925689 C7.8792458,10.0225965 6.17563477,17.6799855 9.34539094,23.1694644 C12.5139657,28.6589434 19.9970949,31.0123367 25.9939947,27.5489971 L29.5140426,33.6244615 C20.3597916,38.909553 8.64539819,35.7776038 3.35971459,26.6233527 Z"></path>
        <radialGradient cx="56.9969915%" cy="28.7641679%" fx="56.9969915%" fy="28.7641679%" r="47.1908008%" id="radial-circle">
            <stop stop-color="#F1FFF8" offset="0%"></stop>
            <stop stop-color="#FFFFFF" offset="20.6108101%"></stop>
            <stop stop-color="#006443" offset="100%"></stop>
        </radialGradient>
        <path fill="url(#radial-circle)" d="M11.4761942,22.1699463 C14.1206868,26.7528412 20.3893119,28.7233629 25.4031413,25.8294101 C30.4614025,22.9081559 31.8436049,16.5185479 29.1980417,11.9372589 C26.5530138,7.35543464 20.3282851,5.35975279 15.2705592,8.27886575 C10.2561945,11.1738892 8.83009564,17.5870514 11.4761942,22.1699463 Z"></path>
    </symbol>
    <symbol id="icon-cross" viewBox="0 0 10 10">
        <polygon points="10 1.4 8.6 0 5 3.6 1.4 0 0 1.4 3.6 5 0 8.6 1.4 10 5 6.4 8.6 10 10 8.6 6.4 5 10 1.4"/>
    </symbol>
    <symbol id="icon-plus" viewBox="0 0 12 12">
        <polygon points="12 5 7 5 7 0 5 0 5 5 0 5 0 7 5 7 5 12 7 12 7 7 12 7 12 5"/>
    </symbol>
    <symbol id="icon-checkmark" viewBox="0 0 12 9">
        <polygon points="11.3 1.4 9.9 0 4.2 5.7 1.4 2.8 0 4.2 2.8 7.1 4.2 8.5 5.7 7.1 5.7 7.1 11.3 1.4"/>
    </symbol>
    <symbol id="icon-checkmark-circle" viewBox="0 0 38 38">
        <g transform="translate(-103.000000, -259.000000)" stroke-width="2" stroke="#FFFFFF" fill="none" fill-rule="evenodd" stroke-linecap="round">
            <g transform="translate(88.000000, 248.000000)">
                <g transform="translate(16.000000, 12.000000)">
                    <path d="M26.2198,12.0843 L17.4748,24.9593 C17.2288,25.3203 16.6818,25.3203 16.4358,24.9593 L10.4448,16.0683"></path>
                    <path d="M36,18 C36,27.941 27.941,36 18,36 C8.059,36 0,27.941 0,18 C0,8.059 8.059,0 18,0 C27.941,0 36,8.059 36,18 Z" stroke-linejoin="round"></path>
                </g>
            </g>
        </g>
    </symbol>
    <symbol id="icon-information" viewBox="0 0 38 38">
        <g transform="translate(-143.000000, -555.000000)" stroke="none" stroke-width="1" fill="none" fill-rule="evenodd">
            <g transform="translate(144.000000, 556.000000)">
                <path d="M36,18 C36,27.941 27.941,36 18,36 C8.059,36 0,27.941 0,18 C0,8.059 8.059,0 18,0 C27.941,0 36,8.059 36,18 Z" stroke="#FFFFFF" stroke-width="2" stroke-linecap="round" stroke-linejoin="round"></path>
                <path d="M18,25.2303 L18,15.2303" stroke="#FFFFFF" stroke-width="2" stroke-linecap="round"></path>
                <path d="M19.5,10.5 C19.5,11.328 18.828,12 18,12 C17.172,12 16.5,11.328 16.5,10.5 C16.5,9.672 17.172,9 18,9 C18.828,9 19.5,9.672 19.5,10.5 Z" fill="#FFFFFF"></path>
            </g>
        </g>
    </symbol>
    <symbol id="icon-warning" viewBox="0 0 38 38">
        <g stroke="none" stroke-width="1" fill="none" fill-rule="evenodd" transform="translate(-79.000000, -749.000000)">
            <g transform="translate(80.000000, 750.000000)">
                <path d="M36,18 C36,27.941 27.941,36 18,36 C8.059,36 0,27.941 0,18 C0,8.059 8.059,0 18,0 C27.941,0 36,8.059 36,18 Z" stroke="#377A6C" stroke-width="2" stroke-linecap="round" stroke-linejoin="round"></path>
                <g transform="translate(16.000000, 9.000000)">
                    <path d="M2,16.2303 L2,6.2303" stroke="#377A6C" stroke-width="2" stroke-linecap="round"></path>
                    <path d="M3.5,1.5 C3.5,2.328 2.828,3 2,3 C1.172,3 0.5,2.328 0.5,1.5 C0.5,0.672 1.172,0 2,0 C2.828,0 3.5,0.672 3.5,1.5 Z" fill="#377A6C"></path>
                </g>
            </g>
        </g>
    </symbol>
    <symbol id="icon-forward-arrow" viewBox="0 0 12 8">
        <g transform="translate(-155.000000, -28.000000)">
            <g transform="translate(155.000000, 28.000000)">
                <g transform="translate(6.000000, 4.000000) scale(-1, 1) translate(-6.000000, -4.000000)">
                    <polygon transform="translate(3.000000, 4.000000) scale(-1, -1) rotate(-270.000000) translate(-3.000000, -4.000000)" points="3 1 7 7 -1 7"></polygon>
                    <rect x="6" y="3" width="6" height="2"></rect>
                </g>
            </g>
        </g>
    </symbol>
    <symbol id="icon-business" viewBox="0 0 40 36">
        <g fill="none" transform="translate(-675.000000, -82.000000)">
            <g transform="translate(677.000000, 84.000000)">
                <path d="M1.51701485,32.0680894 C0.678864145,32.0680894 2.27373675e-13,31.4153354 2.27373675e-13,30.6094213 L2.27373675e-13,1.45866813 C2.27373675e-13,0.65348332 0.678864145,-2.84217094e-14 1.51701485,-2.84217094e-14 L17.4456708,-2.84217094e-14 C18.2838215,-2.84217094e-14 18.9626856,0.65348332 18.9626856,1.45866813 L18.9626856,30.6094213 C18.9626856,31.4153354 18.2838215,32.0680894 17.4456708,32.0680894 L1.51701485,32.0680894 L1.51701485,32.0680894 Z" stroke="#4c4c4c" stroke-width="3" stroke-linejoin="round"></path>
                <g transform="translate(4.376004, 2.188002)" fill="#4c4c4c">
                    <path d="M2.46531931,18.9512351 L0.520428476,18.9512351 C0.252033541,18.9512351 0.0342057675,18.6789504 0.0342057675,18.3434567 L0.0342057675,15.9123432 C0.0342057675,15.5768495 0.252033541,15.3045648 0.520428476,15.3045648 L2.46531931,15.3045648 C2.73371424,15.3045648 2.95154202,15.5768495 2.95154202,15.9123432 L2.95154202,18.3434567 C2.95154202,18.6789504 2.73371424,18.9512351 2.46531931,18.9512351 L2.46531931,18.9512351 Z"></path>
                    <path d="M9.6902484,18.9512351 L7.74535757,18.9512351 C7.47696263,18.9512351 7.25913486,18.6789504 7.25913486,18.3434567 L7.25913486,15.9123432 C7.25913486,15.5768495 7.47696263,15.3045648 7.74535757,15.3045648 L9.6902484,15.3045648 C9.95864334,15.3045648 10.1764711,15.5768495 10.1764711,15.9123432 L10.1764711,18.3434567 C10.1764711,18.6789504 9.95864334,18.9512351 9.6902484,18.9512351 L9.6902484,18.9512351 Z"></path>
                    <path d="M2.46531931,11.6578945 L0.520428476,11.6578945 C0.252033541,11.6578945 0.0342057675,11.3856097 0.0342057675,11.0501161 L0.0342057675,8.61900253 C0.0342057675,8.28350886 0.252033541,8.01122414 0.520428476,8.01122414 L2.46531931,8.01122414 C2.73371424,8.01122414 2.95154202,8.28350886 2.95154202,8.61900253 L2.95154202,11.0501161 C2.95154202,11.3856097 2.73371424,11.6578945 2.46531931,11.6578945 L2.46531931,11.6578945 Z"></path>
                    <path d="M9.6902484,11.6578945 L7.74535757,11.6578945 C7.47696263,11.6578945 7.25913486,11.3856097 7.25913486,11.0501161 L7.25913486,8.61900253 C7.25913486,8.28350886 7.47696263,8.01122414 7.74535757,8.01122414 L9.6902484,8.01122414 C9.95864334,8.01122414 10.1764711,8.28350886 10.1764711,8.61900253 L10.1764711,11.0501161 C10.1764711,11.3856097 9.95864334,11.6578945 9.6902484,11.6578945 L9.6902484,11.6578945 Z"></path>
                    <path d="M2.46531931,4.36455383 L0.520428476,4.36455383 C0.252033541,4.36455383 0.0342057675,4.09226911 0.0342057675,3.75677545 L0.0342057675,1.3256619 C0.0342057675,0.990168234 0.252033541,0.717883518 0.520428476,0.717883518 L2.46531931,0.717883518 C2.73371424,0.717883518 2.95154202,0.990168234 2.95154202,1.3256619 L2.95154202,3.75677545 C2.95154202,4.09226911 2.73371424,4.36455383 2.46531931,4.36455383 L2.46531931,4.36455383 Z"></path>
                    <path d="M9.6902484,4.36455383 L7.74535757,4.36455383 C7.47696263,4.36455383 7.25913486,4.09226911 7.25913486,3.75677545 L7.25913486,1.3256619 C7.25913486,0.990168234 7.47696263,0.717883518 7.74535757,0.717883518 L9.6902484,0.717883518 C9.95864334,0.717883518 10.1764711,0.990168234 10.1764711,1.3256619 L10.1764711,3.75677545 C10.1764711,4.09226911 9.95864334,4.36455383 9.6902484,4.36455383 L9.6902484,4.36455383 Z"></path>
                    <path d="M2.46531931,26.2445757 L0.520428476,26.2445757 C0.252033541,26.2445757 0.0342057675,25.972291 0.0342057675,25.6367973 L0.0342057675,23.2056838 C0.0342057675,22.8701901 0.252033541,22.5979054 0.520428476,22.5979054 L2.46531931,22.5979054 C2.73371424,22.5979054 2.95154202,22.8701901 2.95154202,23.2056838 L2.95154202,25.6367973 C2.95154202,25.972291 2.73371424,26.2445757 2.46531931,26.2445757 L2.46531931,26.2445757 Z"></path>
                    <path d="M9.6902484,26.2445757 L7.74535757,26.2445757 C7.47696263,26.2445757 7.25913486,25.972291 7.25913486,25.6367973 L7.25913486,23.2056838 C7.25913486,22.8701901 7.47696263,22.5979054 7.74535757,22.5979054 L9.6902484,22.5979054 C9.95864334,22.5979054 10.1764711,22.8701901 10.1764711,23.2056838 L10.1764711,25.6367973 C10.1764711,25.972291 9.95864334,26.2445757 9.6902484,26.2445757 L9.6902484,26.2445757 Z"></path>
                </g>
                <path d="M18.2333516,13.834519 L34.2787009,13.834519 C35.0846151,13.834519 35.7373691,14.487273 35.7373691,15.2931872 L35.7373691,30.6092025 C35.7373691,31.4151166 35.0846151,32.0678706 34.2787009,32.0678706 L14.4838451,32.0678706" stroke="#4c4c4c" stroke-width="3" stroke-linejoin="round"></path>
                <path d="M24.7100082,20.7860208 L22.7651174,20.7860208 C22.4967224,20.7860208 22.2788947,20.5137361 22.2788947,20.1782424 L22.2788947,17.7471289 C22.2788947,17.4116352 22.4967224,17.1393505 22.7651174,17.1393505 L24.7100082,17.1393505 C24.9784032,17.1393505 25.1962309,17.4116352 25.1962309,17.7471289 L25.1962309,20.1782424 C25.1962309,20.5137361 24.9784032,20.7860208 24.7100082,20.7860208 L24.7100082,20.7860208 Z" fill="#2C5800"></path>
                <path d="M31.604476,21.1506878 L29.6595852,21.1506878 C29.3911903,21.1506878 29.1733625,20.8784031 29.1733625,20.5429094 L29.1733625,18.1117959 C29.1733625,17.7763022 29.3911903,17.5040175 29.6595852,17.5040175 L31.604476,17.5040175 C31.872871,17.5040175 32.0906988,17.7763022 32.0906988,18.1117959 L32.0906988,20.5429094 C32.0906988,20.8784031 31.872871,21.1506878 31.604476,21.1506878 L31.604476,21.1506878 Z" fill="#2C5800"></path>
                <path d="M24.7100082,28.0793614 L22.7651174,28.0793614 C22.4967224,28.0793614 22.2788947,27.8070767 22.2788947,27.471583 L22.2788947,25.0404695 C22.2788947,24.7049758 22.4967224,24.4326911 22.7651174,24.4326911 L24.7100082,24.4326911 C24.9784032,24.4326911 25.1962309,24.7049758 25.1962309,25.0404695 L25.1962309,27.471583 C25.1962309,27.8070767 24.9784032,28.0793614 24.7100082,28.0793614 L24.7100082,28.0793614 Z" fill="#2C5800"></path>
                <path d="M31.604476,28.4440284 L29.6595852,28.4440284 C29.3911903,28.4440284 29.1733625,28.1717437 29.1733625,27.8362501 L29.1733625,25.4051365 C29.1733625,25.0696428 29.3911903,24.7973581 29.6595852,24.7973581 L31.604476,24.7973581 C31.872871,24.7973581 32.0906988,25.0696428 32.0906988,25.4051365 L32.0906988,27.8362501 C32.0906988,28.1717437 31.872871,28.4440284 31.604476,28.4440284 L31.604476,28.4440284 Z" fill="#2C5800"></path>
            </g>
        </g>
    </symbol>

    <symbol id="icon-private" viewBox="0 0 40 36">
        <rect x="29.9574468" y="0.952396597" width="2.80851064" height="6.66677618" rx="1.40425532"></rect>
        <rect x="36.5106383" y="9.52396597" width="2.80851064" height="26.6671047" rx="1.40425532"></rect>
        <rect transform="translate(22.936170, 34.762476) scale(-1, 1) translate(-22.936170, -34.762476) " x="6.55319149" y="33.3338809" width="32.7659574" height="2.85718979" rx="1.42859489"></rect>
        <rect x="6.55319149" y="9.52396597" width="2.80851064" height="26.6671047" rx="1.40425532"></rect>
        <rect x="26.212766" y="14.2859489" width="3.74468085" height="4.76198298" rx="1"></rect>
        <rect x="15.9148936" y="14.2859489" width="3.74468085" height="4.76198298" rx="1"></rect>
        <rect x="15.9148936" y="23.8099149" width="3.74468085" height="4.76198298" rx="1"></rect>
        <rect x="26.212766" y="23.8099149" width="3.74468085" height="4.76198298" rx="1"></rect>
        <path d="M15.7364645,6.48757294 C15.7364645,5.69858176 16.3758298,5.05897804 17.1678206,5.05897804 L42.3902148,5.05897804 C43.1807309,5.05897804 43.8215709,5.69308106 43.8215709,6.48757294 L43.8215709,6.48757294 C43.8215709,7.27656411 43.1822056,7.91616783 42.3902148,7.91616783 L17.1678206,7.91616783 C16.3773044,7.91616783 15.7364645,7.28206481 15.7364645,6.48757294 L15.7364645,6.48757294 Z" transform="translate(29.779018, 6.487573) rotate(-342.000000) translate(-29.779018, -6.487573) "></path>
        <rect transform="translate(10.038912, 7.334587) rotate(-32.000000) translate(-10.038912, -7.334587) " x="-0.25896009" y="5.9059924" width="20.5957447" height="2.85718979" rx="1.42859489"></rect>
    </symbol>
</svg>